<mxfile host="app.diagrams.net" agent="Mozilla/5.0 (X11; Ubuntu; Linux x86_64; rv:143.0) Gecko/20100101 Firefox/143.0" version="28.2.3">
  <diagram name="Page-1" id="Yr4BOMMFlqmh8c5RuyGG">
    <mxGraphModel dx="1426" dy="826" grid="1" gridSize="10" guides="1" tooltips="1" connect="1" arrows="1" fold="1" page="1" pageScale="1" pageWidth="827" pageHeight="1169" math="0" shadow="0">
      <root>
        <mxCell id="0" />
        <mxCell id="1" parent="0" />
        <mxCell id="uPZLiC8aT8bxoms4S5KQ-1" value="User" style="text;html=1;align=center;verticalAlign=middle;resizable=0;points=[];autosize=1;strokeColor=none;fillColor=none;" parent="1" vertex="1">
          <mxGeometry x="130" y="130" width="50" height="30" as="geometry" />
        </mxCell>
        <mxCell id="uPZLiC8aT8bxoms4S5KQ-2" value="System" style="text;html=1;align=center;verticalAlign=middle;resizable=0;points=[];autosize=1;strokeColor=none;fillColor=none;" parent="1" vertex="1">
          <mxGeometry x="420" y="130" width="60" height="30" as="geometry" />
        </mxCell>
        <mxCell id="uPZLiC8aT8bxoms4S5KQ-3" value="" style="endArrow=none;html=1;rounded=0;" parent="1" edge="1">
          <mxGeometry width="50" height="50" relative="1" as="geometry">
            <mxPoint x="90" y="760" as="sourcePoint" />
            <mxPoint x="90" y="120" as="targetPoint" />
          </mxGeometry>
        </mxCell>
        <mxCell id="uPZLiC8aT8bxoms4S5KQ-4" value="" style="endArrow=none;html=1;rounded=0;" parent="1" edge="1">
          <mxGeometry width="50" height="50" relative="1" as="geometry">
            <mxPoint x="220" y="760" as="sourcePoint" />
            <mxPoint x="220" y="120" as="targetPoint" />
          </mxGeometry>
        </mxCell>
        <mxCell id="uPZLiC8aT8bxoms4S5KQ-5" value="" style="endArrow=none;html=1;rounded=0;" parent="1" edge="1">
          <mxGeometry width="50" height="50" relative="1" as="geometry">
            <mxPoint x="700" y="750" as="sourcePoint" />
            <mxPoint x="700" y="130" as="targetPoint" />
          </mxGeometry>
        </mxCell>
        <mxCell id="uPZLiC8aT8bxoms4S5KQ-6" value="" style="endArrow=none;html=1;rounded=0;" parent="1" edge="1">
          <mxGeometry width="50" height="50" relative="1" as="geometry">
            <mxPoint x="700" y="160" as="sourcePoint" />
            <mxPoint x="90" y="160" as="targetPoint" />
          </mxGeometry>
        </mxCell>
        <mxCell id="uPZLiC8aT8bxoms4S5KQ-7" style="edgeStyle=orthogonalEdgeStyle;rounded=0;orthogonalLoop=1;jettySize=auto;html=1;" parent="1" source="uPZLiC8aT8bxoms4S5KQ-8" target="uPZLiC8aT8bxoms4S5KQ-10" edge="1">
          <mxGeometry relative="1" as="geometry" />
        </mxCell>
        <mxCell id="uPZLiC8aT8bxoms4S5KQ-8" value="" style="ellipse;fillColor=strokeColor;html=1;" parent="1" vertex="1">
          <mxGeometry x="145" y="170" width="20" height="20" as="geometry" />
        </mxCell>
        <mxCell id="uPZLiC8aT8bxoms4S5KQ-81" style="edgeStyle=orthogonalEdgeStyle;rounded=0;orthogonalLoop=1;jettySize=auto;html=1;fontFamily=Helvetica;fontSize=9;fontColor=default;" parent="1" source="uPZLiC8aT8bxoms4S5KQ-10" target="uPZLiC8aT8bxoms4S5KQ-57" edge="1">
          <mxGeometry relative="1" as="geometry" />
        </mxCell>
        <mxCell id="uPZLiC8aT8bxoms4S5KQ-10" value="Select replic" style="html=1;align=center;verticalAlign=top;rounded=1;absoluteArcSize=1;arcSize=10;dashed=0;whiteSpace=wrap;" parent="1" vertex="1">
          <mxGeometry x="110" y="220" width="90" height="30" as="geometry" />
        </mxCell>
        <mxCell id="euJLiEckEN7PaCW9oyu6-4" value="[No]" style="edgeStyle=orthogonalEdgeStyle;rounded=0;orthogonalLoop=1;jettySize=auto;html=1;" edge="1" parent="1" source="uPZLiC8aT8bxoms4S5KQ-57" target="euJLiEckEN7PaCW9oyu6-2">
          <mxGeometry relative="1" as="geometry" />
        </mxCell>
        <mxCell id="euJLiEckEN7PaCW9oyu6-5" value="[Yes]" style="rounded=0;orthogonalLoop=1;jettySize=auto;html=1;" edge="1" parent="1" source="uPZLiC8aT8bxoms4S5KQ-57" target="euJLiEckEN7PaCW9oyu6-1">
          <mxGeometry relative="1" as="geometry" />
        </mxCell>
        <mxCell id="uPZLiC8aT8bxoms4S5KQ-57" value="Verified email&#xa;required?" style="rhombus;fontSize=9;" parent="1" vertex="1">
          <mxGeometry x="540" y="205" width="110" height="60" as="geometry" />
        </mxCell>
        <mxCell id="euJLiEckEN7PaCW9oyu6-10" value="[Yes]" style="edgeStyle=orthogonalEdgeStyle;rounded=0;orthogonalLoop=1;jettySize=auto;html=1;" edge="1" parent="1" source="euJLiEckEN7PaCW9oyu6-1" target="euJLiEckEN7PaCW9oyu6-7">
          <mxGeometry relative="1" as="geometry" />
        </mxCell>
        <mxCell id="euJLiEckEN7PaCW9oyu6-13" value="[No]" style="edgeStyle=orthogonalEdgeStyle;rounded=0;orthogonalLoop=1;jettySize=auto;html=1;" edge="1" parent="1" source="euJLiEckEN7PaCW9oyu6-1" target="euJLiEckEN7PaCW9oyu6-12">
          <mxGeometry relative="1" as="geometry" />
        </mxCell>
        <mxCell id="euJLiEckEN7PaCW9oyu6-1" value="Email verified?" style="rhombus;fontSize=9;" vertex="1" parent="1">
          <mxGeometry x="313" y="290" width="100" height="50" as="geometry" />
        </mxCell>
        <mxCell id="euJLiEckEN7PaCW9oyu6-6" value="[Yes]" style="rounded=0;orthogonalLoop=1;jettySize=auto;html=1;" edge="1" parent="1" source="euJLiEckEN7PaCW9oyu6-2" target="euJLiEckEN7PaCW9oyu6-3">
          <mxGeometry relative="1" as="geometry" />
        </mxCell>
        <mxCell id="euJLiEckEN7PaCW9oyu6-8" value="[No]" style="edgeStyle=orthogonalEdgeStyle;rounded=0;orthogonalLoop=1;jettySize=auto;html=1;" edge="1" parent="1" source="euJLiEckEN7PaCW9oyu6-2" target="euJLiEckEN7PaCW9oyu6-7">
          <mxGeometry relative="1" as="geometry">
            <Array as="points">
              <mxPoint x="595" y="720" />
            </Array>
          </mxGeometry>
        </mxCell>
        <mxCell id="euJLiEckEN7PaCW9oyu6-2" value="Account&#xa;required?" style="rhombus;fontSize=9;" vertex="1" parent="1">
          <mxGeometry x="545" y="360" width="100" height="50" as="geometry" />
        </mxCell>
        <mxCell id="euJLiEckEN7PaCW9oyu6-9" value="[Yes]" style="edgeStyle=orthogonalEdgeStyle;rounded=0;orthogonalLoop=1;jettySize=auto;html=1;" edge="1" parent="1" source="euJLiEckEN7PaCW9oyu6-3" target="euJLiEckEN7PaCW9oyu6-7">
          <mxGeometry relative="1" as="geometry">
            <Array as="points">
              <mxPoint x="463" y="720" />
            </Array>
          </mxGeometry>
        </mxCell>
        <mxCell id="euJLiEckEN7PaCW9oyu6-18" value="[No]" style="edgeStyle=orthogonalEdgeStyle;rounded=0;orthogonalLoop=1;jettySize=auto;html=1;" edge="1" parent="1" source="euJLiEckEN7PaCW9oyu6-3" target="euJLiEckEN7PaCW9oyu6-17">
          <mxGeometry relative="1" as="geometry" />
        </mxCell>
        <mxCell id="euJLiEckEN7PaCW9oyu6-3" value="Logged&#xa;in?" style="rhombus;fontSize=9;" vertex="1" parent="1">
          <mxGeometry x="414" y="420" width="100" height="50" as="geometry" />
        </mxCell>
        <mxCell id="euJLiEckEN7PaCW9oyu6-30" style="edgeStyle=orthogonalEdgeStyle;rounded=0;orthogonalLoop=1;jettySize=auto;html=1;" edge="1" parent="1" source="euJLiEckEN7PaCW9oyu6-7" target="euJLiEckEN7PaCW9oyu6-25">
          <mxGeometry relative="1" as="geometry" />
        </mxCell>
        <mxCell id="euJLiEckEN7PaCW9oyu6-7" value="&lt;div&gt;Redirect to&lt;/div&gt;&lt;div&gt;replic&lt;/div&gt;" style="html=1;align=center;verticalAlign=top;rounded=1;absoluteArcSize=1;arcSize=10;dashed=0;whiteSpace=wrap;" vertex="1" parent="1">
          <mxGeometry x="318" y="700" width="90" height="40" as="geometry" />
        </mxCell>
        <mxCell id="euJLiEckEN7PaCW9oyu6-16" style="edgeStyle=orthogonalEdgeStyle;rounded=0;orthogonalLoop=1;jettySize=auto;html=1;" edge="1" parent="1" source="euJLiEckEN7PaCW9oyu6-12" target="euJLiEckEN7PaCW9oyu6-14">
          <mxGeometry relative="1" as="geometry" />
        </mxCell>
        <mxCell id="euJLiEckEN7PaCW9oyu6-12" value="Show error" style="html=1;align=center;verticalAlign=top;rounded=1;absoluteArcSize=1;arcSize=10;dashed=0;whiteSpace=wrap;" vertex="1" parent="1">
          <mxGeometry x="110" y="300" width="90" height="30" as="geometry" />
        </mxCell>
        <mxCell id="euJLiEckEN7PaCW9oyu6-14" value="" style="shape=sumEllipse;perimeter=ellipsePerimeter;html=1;backgroundOutline=1;strokeColor=default;align=center;verticalAlign=middle;spacingBottom=7;fontFamily=Helvetica;fontSize=9;fontColor=default;fillColor=default;" vertex="1" parent="1">
          <mxGeometry x="140" y="360" width="30" height="30" as="geometry" />
        </mxCell>
        <mxCell id="euJLiEckEN7PaCW9oyu6-21" style="edgeStyle=orthogonalEdgeStyle;rounded=0;orthogonalLoop=1;jettySize=auto;html=1;" edge="1" parent="1" source="euJLiEckEN7PaCW9oyu6-17" target="euJLiEckEN7PaCW9oyu6-19">
          <mxGeometry relative="1" as="geometry" />
        </mxCell>
        <mxCell id="euJLiEckEN7PaCW9oyu6-17" value="Authenticate" style="html=1;align=center;verticalAlign=top;rounded=1;absoluteArcSize=1;arcSize=10;dashed=0;whiteSpace=wrap;" vertex="1" parent="1">
          <mxGeometry x="110" y="430" width="90" height="30" as="geometry" />
        </mxCell>
        <mxCell id="euJLiEckEN7PaCW9oyu6-22" value="[Yes]" style="edgeStyle=orthogonalEdgeStyle;rounded=0;orthogonalLoop=1;jettySize=auto;html=1;" edge="1" parent="1" source="euJLiEckEN7PaCW9oyu6-19" target="euJLiEckEN7PaCW9oyu6-7">
          <mxGeometry x="-0.3288" relative="1" as="geometry">
            <mxPoint as="offset" />
          </mxGeometry>
        </mxCell>
        <mxCell id="euJLiEckEN7PaCW9oyu6-24" value="[No]" style="edgeStyle=orthogonalEdgeStyle;rounded=0;orthogonalLoop=1;jettySize=auto;html=1;" edge="1" parent="1" source="euJLiEckEN7PaCW9oyu6-19" target="euJLiEckEN7PaCW9oyu6-23">
          <mxGeometry relative="1" as="geometry" />
        </mxCell>
        <mxCell id="euJLiEckEN7PaCW9oyu6-19" value="Success?" style="rhombus;fontSize=9;" vertex="1" parent="1">
          <mxGeometry x="105" y="520" width="100" height="50" as="geometry" />
        </mxCell>
        <mxCell id="euJLiEckEN7PaCW9oyu6-28" style="edgeStyle=orthogonalEdgeStyle;rounded=0;orthogonalLoop=1;jettySize=auto;html=1;" edge="1" parent="1" source="euJLiEckEN7PaCW9oyu6-23" target="euJLiEckEN7PaCW9oyu6-25">
          <mxGeometry relative="1" as="geometry" />
        </mxCell>
        <mxCell id="euJLiEckEN7PaCW9oyu6-23" value="Show error" style="html=1;align=center;verticalAlign=top;rounded=1;absoluteArcSize=1;arcSize=10;dashed=0;whiteSpace=wrap;" vertex="1" parent="1">
          <mxGeometry x="110" y="620" width="90" height="30" as="geometry" />
        </mxCell>
        <mxCell id="euJLiEckEN7PaCW9oyu6-25" value="" style="shape=sumEllipse;perimeter=ellipsePerimeter;html=1;backgroundOutline=1;strokeColor=default;align=center;verticalAlign=middle;spacingBottom=7;fontFamily=Helvetica;fontSize=9;fontColor=default;fillColor=default;" vertex="1" parent="1">
          <mxGeometry x="140" y="705" width="30" height="30" as="geometry" />
        </mxCell>
      </root>
    </mxGraphModel>
  </diagram>
</mxfile>
